<svg id="Layer_1" data-name="Layer 1" xmlns="http://www.w3.org/2000/svg" viewBox="0 0 512 512"><defs><style>.cls-1{fill:#707070;}</style></defs><title>dollar-bills-handdrawn</title><path class="cls-1" d="M511.87,289.1q0-10.21,0-20.38c0-27.12.07-54,.11-81l-.1,3.46c-.06-8.08-.12-16.07-.19-24.23-.09-13.79.19-27.4-.21-41.35A63.85,63.85,0,0,0,459.14,67c-7-1.39-14.07-1-20.87-1H395.86c-28.36.09-36.42.07-33.3-.27,5.79-.64-25.86-.7-47.88-.87l-183-.89L93.89,63.8c-6.39,0-12.63-.1-19.17,0a64.11,64.11,0,0,0-19.88,3.55,66.4,66.4,0,0,0-44.62,59.69c-.31,9.5-.1,21.27-.16,32,0,20.79,0,41.12.07,61.59h0c0,18.76,0,37.39.07,56.26h0c0,18.94,0,37.89.07,57.25a74.64,74.64,0,0,1-6.79-24.63l-.32-6.18,0-5.29,0-10.49,0-21c0-28,0-56.09-.05-84-.05-12.68-.11-25.23-.15-36.62-.06-5.69-.12-11.09-.18-16.07.08-2.84.14-5.76.36-8.42.39-2.66.64-5.21,1.13-7.55a84.63,84.63,0,0,1,6.17-18.55c1.23-2.81.63-2.23-2.14,3.12a65.66,65.66,0,0,0-4.9,13.66,52.82,52.82,0,0,0-1.32,6.71,46.26,46.26,0,0,0-.7,6.8c-.35,4.94-.18,8-.27,12Q.86,149,.78,160.46c-.11,15.29-.22,30.8-.34,46.68.17,8.39.35,17.22.62,30.33,0,6.07,0,20.53,0,31.19-.16,0-.35,3.59-.47-.85C.22,253,0,257,0,288q0,7.56,0,15.23a95.63,95.63,0,0,0,1.07,12.26c0,7.1,0,18.63,0,27.56-.16,0-.35,3.59-.47-.85C.22,327.32,0,331.35,0,362.32q0,7.56,0,15.23a78.58,78.58,0,0,0,2.41,18.73A76.32,76.32,0,0,0,51,449.39a78,78,0,0,0,17.52,3.92c2.86.14,6.05.32,8.57.33l7-.08c7.41-.1,16-.29,14.51-.42L84,452l-8.29-.58a77.79,77.79,0,0,1-10.19-1.4A80.48,80.48,0,0,1,50,445.66a74.67,74.67,0,0,1-26.5-17.73,73.15,73.15,0,0,1-20.14-44l-.32-6.18,0-5.29L3,362l0-21q0-8.63,0-17.25A74,74,0,0,0,10.18,341c0,7.82,0,15.72,0,23.74,0,2.94,0,7.95.07,12.64l.44,6.9.78,4.45a46.61,46.61,0,0,0,4,11.67,64.53,64.53,0,0,0,18.7,26.37,68.12,68.12,0,0,1-7.13-7.49,64.15,64.15,0,0,0,47.63,22.93c5.53.16,10.76.06,16.09.09l64.93-.26,4,.38,51-.06-11.3-.13c.68-.33,6.34-.62.07-.83-5-.16-24.2-.28-37.91-.3-14.73,0-21,0-25.26-.3-3.1-.21-22.53-.35-34.76-.52-30.05-.42-20.17-1-22.06-1.5-.66-.19,1-.37,1.78-.63l25-.24-21.44-.18c-6.61-.16-12.83.23-19.49-1.22l2.26.68c-6.18-.69-15.1-3.85-17.2-5.25a59.27,59.27,0,0,1-22-18.86,57.7,57.7,0,0,1-10-23.21c-.68-4.74-.62-5.72-.23-4.05a65.48,65.48,0,0,0,3.33,11.56,59.39,59.39,0,0,0,11.14,18.2A60.26,60.26,0,0,0,52,430a65.35,65.35,0,0,0,7,2.75,68.16,68.16,0,0,0,7.31,1.71c5,1,9.84.89,15.38.91h97.49l54.43-.11L146.79,435l.06-.15,28.84-.07c18.93,0,33,0,44.78-.33,10.84-.27,28.66-.3,53-.26,27.44.05,64.52.3,86.39-.15.14,5.53.37,6.79.69,3.68.15-1.41.29-2.58.44-3.7l3.36-.08c7.87-.23,1.27-.57,1.27-.85h82.42L408.42,431l16.48-.14c-48.38-.2-25.49-1.1-63.22-1.43v0L399,429c-12.81-.29-28-.5-20.56-1,4.11-.26-6.83-.57-16.42-.88.07-.51.15-1,.22-1.52,0-3.38,0-6.52.05-9.38,40.84-.49,53.3-1.44,17.49-2L363,414.18a12.17,12.17,0,0,1-.72,2c.11-11.77.37-18.43.79-14.87,0-1.5,0-3,0-4.48l1.3,0c7.87-.23,1.27-.57,1.27-.85h82.42l-39.65-2.12,16.48-.14c-47.77-.2-26.06-1.08-61.82-1.42v-.05l35.89-.3c-12.81-.29-28-.5-20.56-1,4-.25-6-.54-15.33-.84q0-5.48,0-10.94c40.14-.5,52.21-1.43,16.66-2L363.11,377q0-8.72,0-17.39l1.24,0c7.87-.23,1.27-.57,1.27-.85h82.42l-39.65-2.12,16.48-.14c-6.88,0-12.28-.07-16.66-.12a14.51,14.51,0,0,1,0-4.28,4.83,4.83,0,0,0,.1-.72l-.11-1.92-.44-5.61c-.38-5.48.58-13.51.24-15a21.3,21.3,0,0,1,.07-3.8c.19-1.85.66-4,.85-5.47.14-1,.11-1.54-.12-1.13-.49.88-1.17,2.54-1.51,3.31a83.52,83.52,0,0,0-2,29.67c.2,1.86.43,3.33.74,4.92l-2.65,0c-.26-1.39-.48-2.77-.66-4.18-.24-1.86-.42-3.75-.53-5.64a71.79,71.79,0,0,1,.22-11.35c.88-12,4.49-24.66,10.44-34.56l4-6.55c6-8.71,13-16.36,22.25-22.35,1.23-.71,4.07-2.63,4.71-3.16,1.22-1,1.35-1.46,2.09-2.1l6.84-3.4c-.65.19-1.16.41-2.3.81a88.44,88.44,0,0,1,15.88-5.2,87.47,87.47,0,0,1,15.77-2.3l1,.33a67.73,67.73,0,0,1,12.48.49c-2.41-.41-3.42-.51-2.74-.43.19-.31,1.62-.46.09-.82a46.09,46.09,0,0,0-9.4-.58c-3.66.16-5.23.25-6.31,0-.8-.25-5.62.46-8.7.72-7.44,1.34-5.18.28-5.77-.14-.21-.14.15-.42.28-.72a59.69,59.69,0,0,1,6.23-1.65c-4.13.53-6.9,1.43-10.49,2.15l.7.16c-1.58.45-3.87,1.43-4.52,1.58a53.61,53.61,0,0,0-7.44,2.48c-2.35,1-4.69,1.69-6.43,2.61-2.37,1.14-1.26,0,1.53-1.85A67,67,0,0,1,454.38,255a92.85,92.85,0,0,1,33.81-5.5,95.94,95.94,0,0,1,10.42.92c0,15.19,0,30.4.07,45.19h-.06l0,13.29a50.87,50.87,0,0,1-3.73,14.21,52.93,52.93,0,0,1-35.58,30,49.31,49.31,0,0,0,16.2-6.26A53.37,53.37,0,0,1,456,354.8c-1.41.33-1.57.47-.15.38a37.75,37.75,0,0,0,9.23-1.81c4.33-1.46-.45.55.53.38,1.27-.27,4.31-.63,11.25-4.65a49.58,49.58,0,0,0,12.46-10.33,52.59,52.59,0,0,0,9.39-15.05q0,6.07,0,12c-.59.89-1.15,1.8-1.79,2.66a60.51,60.51,0,0,1-22,18.63,59.23,59.23,0,0,1-17.75,5.77c-9,1.2-11.36,1.13-6.91,1.39a68.49,68.49,0,0,0,15.67-.87,67,67,0,0,0,23.48-12.71c4.56-3.78,6-5.64,4.29-3.21a60.89,60.89,0,0,0,5-5.86c0,1.38,0,2.73,0,4.1a52.21,52.21,0,0,1-39.37,44.66,49.31,49.31,0,0,0,16.2-6.26A53.37,53.37,0,0,1,456,392c-1.41.33-1.57.47-.15.38a37.75,37.75,0,0,0,9.23-1.81c4.33-1.46-.45.55.53.38,1.27-.27,4.31-.63,11.25-4.65a49.58,49.58,0,0,0,12.46-10.33,52.54,52.54,0,0,0,9.44-15.18c0,4.07,0,8.09,0,12-.61.94-1.17,1.91-1.84,2.81a60.51,60.51,0,0,1-22,18.63A59.23,59.23,0,0,1,457.16,400c-9,1.2-11.36,1.13-6.91,1.39a68.49,68.49,0,0,0,15.67-.87,67,67,0,0,0,23.48-12.71c4.56-3.78,6-5.64,4.29-3.21a59.88,59.88,0,0,0,5.06-6.1c0,1.3,0,2.64,0,3.92a52.51,52.51,0,0,1-3.84,15,52.93,52.93,0,0,1-35.58,30,49.31,49.31,0,0,0,16.2-6.26A53.37,53.37,0,0,1,456,429.16c-1.41.33-1.57.47-.15.38a37.75,37.75,0,0,0,9.23-1.81c4.33-1.46-.45.55.53.38,1.27-.27,4.31-.63,11.25-4.65a49.58,49.58,0,0,0,12.46-10.33,54.59,54.59,0,0,0,13.43-31.69l.27-4.32.08-4.75.45-16.86c.34-9.53.74-14.75,1-10.26.39,6.69.76,0,1-14.84a65.21,65.21,0,0,0,3.12-7.92c0,1.32,0,2.69,0,4,0,15-.05,30-.08,45,.81,14.92-3,29.61-11.67,41.25a60.51,60.51,0,0,1-22,18.63,59.23,59.23,0,0,1-17.75,5.77c-9,1.2-11.36,1.13-6.91,1.39a68.49,68.49,0,0,0,15.67-.87A67,67,0,0,0,489.4,425c4.56-3.78,6-5.64,4.29-3.21a64.39,64.39,0,0,0,17.8-37.68c.56-7.11.31-13.81.38-20.64s0-13.6,0-20.38c0-16.32,0-32.51.06-48.73h-.09C511.86,292.6,511.85,290.86,511.87,289.1ZM67.75,82.56a39.2,39.2,0,0,1,5.62-.66l2.9-.16H80l13.5.06,15.42.11s-.06.12-.08.14-.09-.31,0,.46l.2,2,.27,4.08a102.87,102.87,0,0,1-.85,16.41,32.62,32.62,0,0,1-1.23,5.88A73.63,73.63,0,0,1,93,138.7a72.5,72.5,0,0,1-20.66,17.44,71.39,71.39,0,0,1-21.64,7.67,92.64,92.64,0,0,1-16.65,1c-1.38-.06-2.75-.17-4.13-.3l-1.49-.17q0-4.79,0-9.58V136.23c0-6.78,0-11,.9-15.76a52.17,52.17,0,0,1,4.78-13.41,54.06,54.06,0,0,1,8.59-11.45A48.27,48.27,0,0,1,67.75,82.56ZM129.27,82a94.81,94.81,0,0,1-1.46,32c-.1,1-.38,3-.43,4.24,0,.56.3,0,.7-1.11.59-1.71,1.47-4.16,2-6.33a31.27,31.27,0,0,1,1.19-4.43c1.14-1.6,1.87-11.55,1.64-18.34a54.69,54.69,0,0,0-.49-6c8.81,0,17.74,0,26.62,0-.09,20-.18,39.86-.26,58.69,0,7.08,0,16.32,0,24.58.05,33.83.1,66.08.15,101.13,0,4.53.14,15.44.26,18,.23,4.93.49,6,.78,9,0,6.68.07,14.61.12,24l.25-7.63c0,15-.09,28.24-.13,41l-9.24,0q.28-3.27.55-6.7c.31-3.9.39-13.54.34-31.49-.07-42.77-.13-86.2-.2-129.29,0-39.1-.93-76.56-1.66-61.24,0,1.52-.1,5.58-.17,9.24-.22,23.12-.44,46.47-.67,70.93l.62,23.37c0,4.68,0,15.82,0,24-.16,0-.35,2.77-.47-.66-.4-11.44-.6-8.34-.61,15.53,0,28.78-.28,59.26.07,86.26l-11.19,0c.21-1.72.38-3.47.49-5.26a91,91,0,0,0-1.68-22.84,82.73,82.73,0,0,0-1.87-8.16,100.53,100.53,0,0,0-19.76-38.7,100.59,100.59,0,0,0-29-23.68,112.26,112.26,0,0,0-29.89-10.93,104.94,104.94,0,0,0-23.08-2c-1.48.05-3,.18-4.45.31,0-3.57,0-7.11,0-10.69,0-2.31,0-4.62,0-6.93h-.06c0-9.58,0-19.14.06-28.76l.66.08a78.28,78.28,0,0,0,12.59.11l1.39-.25a88.64,88.64,0,0,1-14.63-.92v-.52c0-3.38,0-6.77,0-10.15a67.1,67.1,0,0,0,10.84.39l1-.43a81.31,81.31,0,0,0,16.86-1.92A83.26,83.26,0,0,0,74,173.81c-1.11.66-1.61,1-2.25,1.33l7.44-3.42a9.83,9.83,0,0,0,3-.85c.82-.35,4.12-2.17,5.44-3,9.88-6.92,18.11-14.7,24.71-24.37,1.52-2.41,3.18-5.15,4.39-7.26a92.23,92.23,0,0,0,10.47-38.15,79.08,79.08,0,0,0-.16-12.34c-.11-1.25-.3-2.47-.47-3.71Zm44.42,343.14h-.45L173.15,406l.16-4.89c.13,4.36.37,8.12.38,13.21C173.69,417.88,173.69,421.53,173.69,425.17Zm-12.32-8.41h5.73v8.42h-5.79c0-2.86,0-5.69.06-8.27C161.37,416.86,161.37,416.82,161.37,416.76Zm-81.9-15.19c-.66-.19,1-.37,1.78-.63l25-.24-21.44-.18c-6.61-.16-12.83.23-19.49-1.22l2.26.68c-6.18-.69-15.1-3.85-17.2-5.25a59.27,59.27,0,0,1-22-18.86l-.09-.14v-2.91a56.11,56.11,0,0,0,4.35,5.56A60.26,60.26,0,0,0,52,392.79a65.35,65.35,0,0,0,7,2.75,68.16,68.16,0,0,0,7.31,1.71c5,1,9.84.89,15.38.91h78.67c0,1.88,0,3.82,0,5.74-13.85,0-20,0-24.09-.3-3.1-.21-22.53-.35-34.76-.52C71.47,402.65,81.36,402.09,79.47,401.57Zm34-104.3c-1.64-2.49-2.93-5.22-5.16-8,5.7,7.34,9.95,16,10.91,20.26-1.28-3.52-3.15-6.55-5-10.13-.74-1.47-2.17-3.79-4.53-7.91l3.81,6Zm-4.09,3.25c6,9.89,9.57,22.52,10.44,34.56a71.83,71.83,0,0,1,.22,11.35c-.09,1.52-.25,3-.42,4.54H117a83.6,83.6,0,0,0-2-29.27c-.35-.77-1-2.43-1.51-3.31-.23-.41-.26.16-.12,1.13.18,1.52.66,3.62.85,5.47a21.26,21.26,0,0,1,.07,3.8c-.34,1.48.62,9.51.24,15l-.44,5.61L114,351l-10.29,0-26.07.09A47.62,47.62,0,0,1,56.84,347c-13-5.76-23.5-17.86-26.92-31.42a41.2,41.2,0,0,1-1.55-9.77c0-8.32,0-16.63,0-25h-.07c0-4.07,0-8.16,0-12.24,1-.12,2-.25,3-.31a57.49,57.49,0,0,1,9,0l1-.13a62.52,62.52,0,0,0-13-.51q0-5.32,0-10.66a63.38,63.38,0,0,1,10.76-.33l1-.33a87.47,87.47,0,0,1,15.77,2.3,88.44,88.44,0,0,1,15.88,5.2c-1.14-.4-1.64-.62-2.3-.81l6.84,3.4c.74.64.87,1.11,2.09,2.1.64.53,3.48,2.45,4.71,3.16,9.27,6,16.27,13.64,22.25,22.35Zm13.61,22c0-.1,0-.16,0-.26.2.77.32,1.56.46,2.39a86.33,86.33,0,0,1,.8,26.28H124c.2-1.56.39-3.11.5-4.64A97.75,97.75,0,0,0,123,322.53ZM164,142.72c0,4.33-.06,8.65-.16,21.25l-.15-27.46c.15-12.1.29-22.71.43-33.92.32,13,.28,41.39-.12,69.28,0-10.58,0-19.54,0-28.49Zm.61,201.57c0-4.9,0-12.3,0-14.28l1.16-43.69c.56-15.43,1.26,18.18,1.32,44.24,0,6.7,0,13.51,0,20.26h-2.25c0-2.71.06-5.47.09-8.39Zm3,61.3q0,5.36,0,10.71h-.23l0-10.76ZM28.4,249.24c1.94-.14,4.07-.26,6.65-.34s5.13.22,7.7.33v.15a77.54,77.54,0,0,0-11.56,0c-.93.07-1.86.2-2.79.3C28.4,249.55,28.4,249.4,28.4,249.24ZM98.59,378.77,84,377.67l-8.29-.58a77.79,77.79,0,0,1-10.19-1.4A80.48,80.48,0,0,1,50,371.3a77.54,77.54,0,0,1-16.4-9,43.59,43.59,0,0,1-3.7-9.57,32.8,32.8,0,0,1-1.17-5.63,68.15,68.15,0,0,0,5.46,5.26,72,72,0,0,1-5.52-5.61l0-.27a65.72,65.72,0,0,0,29.07,18.61,65.71,65.71,0,0,0,17,2.71c5.53.16,10.76.06,16.09.09l58.39-.23c0,.71.08,1,.12.73s0-.49.07-.73l6.34,0,4,.38h.51c0,3.72,0,7.45.06,11.19l-12.45.17,4.72.18h7.73c0,2.8,0,5.6,0,8.44-18.73,0-37.51.1-56.59.2l-26.07.09a47.62,47.62,0,0,1-20.79-4.14,48.88,48.88,0,0,1-19.09-15.42A76.85,76.85,0,0,0,51,375a78,78,0,0,0,17.52,3.92c2.86.14,6.05.32,8.57.33l7-.08C91.49,379.09,100.06,378.9,98.59,378.77ZM149,360.49v.16h-2.18l.06-.15Zm1.14,0,10.07,0c0,.07,0,.14,0,.21l-10.08,0Zm17,.21h-2.36c0-.08,0-.16,0-.24h2.36C167.07,360.52,167.07,360.61,167.07,360.69Zm0,.28c0,1.92,0,3.83,0,5.76h-2.43q0-3,.06-5.75Zm-2.6,5.75h-2.2c.05-2.29.11-4.17.16-5.74h2Q164.42,363.38,164.47,366.72ZM162.24,368h2.24l.08,6.26.07-6.26h2.45c0,3.71,0,7.38,0,11.1l-5,.07c0-3,.09-6,.14-8.53C162.21,369.71,162.22,368.89,162.24,368Zm4.84,11.55q0,4.21,0,8.42h-5.17c0-2.64.09-5.53.13-8.44Zm0,12q0,.24,0,.49h-5.25c0-.17,0-.33,0-.5Zm0-36.69h-2.3c0-.16,0-.33,0-.49h2.29C167.07,354.56,167.07,354.73,167.07,354.89Zm-2.68,5.56c0,.08,0,.15,0,.24h-2v-.23Zm-4.22.53v1.43q0,2.16,0,4.3l-10.7,0q.28-2.72.57-5.71Zm-2,30.6h2.12c0,.17,0,.34,0,.51l-12.92,0-6.35-.16C146.71,391.82,151.59,391.59,158.19,391.57Zm-11.35,6.1,13.5,0v.22l-13.56,0Zm14.81,0h5.44v.25h-5.45Zm2.46-43.24c.05.18.1.34.16.5h-1.5c0-.19,0-.36.07-.5Zm-3.93.51-9.58,0,0-.42c2.35-.06,4.78-.11,7.55-.11h2C160.19,354.57,160.19,354.73,160.19,354.91Zm-11.32,0H147.4l-6.35-.16c2.69-.06,5.2-.15,7.81-.22C148.86,354.68,148.86,354.81,148.86,354.93Zm.11,6c.05,2.23.11,4.3.17,5.71-6.35,0-10.07-.08-12.85-.27-3.1-.21-22.53-.35-34.76-.52-30.05-.42-20.17-1-22.06-1.5-.66-.19,1-.37,1.78-.63l25-.24-21.44-.18c-6.61-.16-12.83.23-19.49-1.22l2.26.68c-6.18-.69-15.1-3.85-17.2-5.25a59.27,59.27,0,0,1-22-18.86l0,0c0-1,0-1.94,0-2.91a56.15,56.15,0,0,0,4.28,5.45A60.26,60.26,0,0,0,52,355.61a65.35,65.35,0,0,0,7,2.75,68.16,68.16,0,0,0,7.31,1.71c5,1,9.84.89,15.38.91H149ZM81.15,262.47c-1.73-.93-4.07-1.63-6.43-2.61a53.6,53.6,0,0,0-7.44-2.48c-.65-.16-2.94-1.13-4.52-1.58l.7-.16c-3.58-.72-6.35-1.62-10.49-2.15a59.69,59.69,0,0,1,6.23,1.65c.14.3.49.59.28.72-.59.42,1.67,1.48-5.77.14-3.08-.26-7.9-1-8.7-.72-1.08.23-2.65.14-6.31,0a46.09,46.09,0,0,0-9.4.58c-1.53.36-.1.51.09.82.48-.06.08,0-1,.15v-7c1.9-.17,3.74-.29,5.74-.38A92.85,92.85,0,0,1,67.95,255a67,67,0,0,1,11.66,5.63C82.4,262.47,83.52,263.61,81.15,262.47ZM42.94,243.68a87,87,0,0,0-14.52.09v-.43A69,69,0,0,1,39.9,243c1.88.1,3.25.41,4.85.63ZM161.61,398.15h5.48v5.76l-5.55,0h-.12C161.45,401.41,161.51,399.62,161.61,398.15Zm5.48,7.05q0,5.56,0,11.1l-5.73.08c0-4.79,0-8.37,0-11.18Zm.31,11.55h.23c0,2.81,0,5.62,0,8.42h-.29Zm-115-240.59A56.72,56.72,0,0,0,58.55,175c.26.2.71.28.59.5-.35.59,2.29.6-5.11,2.79l-8.77,1.79c-1.07.34-2.69.41-6.5.63-3.54.26-8.53,0-9.82,0a1.91,1.91,0,0,0-.5.07v-6.22c2,.22,4.09.39,6,.44a87.87,87.87,0,0,0,30.8-4.91c3.93-1.19,8.14-3.25,11.05-4.32,2.79-1.28,4.17-1.84,2.21-.3a45.25,45.25,0,0,1-5.55,3.5,48.84,48.84,0,0,1-6.71,3.39c-.59.24-2.83,1.11-4.35,1.54l.48-.47C59,174.36,56.36,175.4,52.43,176.17Zm-24-2.21a56.41,56.41,0,0,0,6.81.54c2.3.1,4.62-.13,6.93-.17l0,.15a69.13,69.13,0,0,1-10.45.2c-1.1-.06-2.21-.18-3.31-.29C28.45,174.25,28.45,174.1,28.45,174Zm0,7.22a1.37,1.37,0,0,1,.44.38l-.44,0C28.45,181.42,28.45,181.3,28.45,181.18Zm13.28-12.39a67,67,0,0,1-13.27-.44c0-.13,0-.26,0-.39a63.58,63.58,0,0,0,10.84.41,33.35,33.35,0,0,1,3.85.19Zm70.07-34.35c-1.59,2.44-2.82,5.13-5,7.83a128,128,0,0,0,10.46-19.9,76.09,76.09,0,0,1-4.09,10.28c-.65,1.49-2.25,3.67-4.71,7.63l3.46-6ZM122.16,82c.19,1.49.44,2.95.55,4.5a95.74,95.74,0,0,1-1.63,23.25c0,.1-.1.13-.17.21.15-.75.19-1.54.32-2.35a84.33,84.33,0,0,0,.58-25.6ZM15.49,121.85A60.1,60.1,0,0,1,35.62,84.43a62.38,62.38,0,0,0-18.41,31.43c-1.93,7.53-1.66,16-1.73,24.82s-.15,17.89-.23,26.94c0-13.73,0-25.35,0-37l0-.85c0,5.61-.06,11.23-.16,27.58C15.1,138.85,14.59,128.12,15.49,121.85ZM103.7,425.4l-26.07.09a47.62,47.62,0,0,1-20.79-4.14,48.88,48.88,0,0,1-19.1-15.44A76.24,76.24,0,0,0,51,412.21a78,78,0,0,0,17.52,3.92c2.86.14,6.05.32,8.57.33l7-.08c7.41-.1,16-.29,14.51-.42L84,414.85l-8.29-.58a77.79,77.79,0,0,1-10.19-1.4A80.48,80.48,0,0,1,50,408.48a77.54,77.54,0,0,1-16.4-9,43.59,43.59,0,0,1-3.7-9.57,32.8,32.8,0,0,1-1.17-5.63,68.15,68.15,0,0,0,5.46,5.26A72,72,0,0,1,28.7,384l0-.27A65.72,65.72,0,0,0,57.74,402.3a65.71,65.71,0,0,0,17,2.71c5.53.16,10.76.06,16.09.09l64.93-.26,4,.38h.7c0,2.4,0,4.76,0,7.23l-.38,3v.92l-12.25.17,4.72.18H160v8.44C141.4,425.24,122.7,425.31,103.7,425.4Zm37.35,3.73c5.66-.13,10.54-.37,17.14-.38h8.91v.49l-19.71,0Zm26.3.11v-.49h.31c0,.16,0,.31,0,.47a14.23,14.23,0,0,1,5.59-.1v-.37l43.29,0,34.7.08,20.84-.1,2.66.21Zm109.28-4-15.42,0c-28.61-.14-56.49-.17-84.37-.13.15-.33.27-.67.45-1-.08-17.2-.17-34.31-.25-51.83,0-26-.09-55.71-.13-83.51.08-32.91.17-65.44.25-98.35,0-35.85,0-71.92,0-107.9L176,82c24.45-.07,47.59-.24,65.47-.51l68.68-.36-2.32.19c7.81.24,11.95.62,24.25.7l14.77.07,0,0q0,6.86,0,13.83c.09,9.59.19,19.27.28,28.84.1,13.89.26,36.5.42,57.79l.82-5.82c.14,60.15,1,35.84,1.74,33.37-.07,23-.14,44-.2,64.63,0,32.15-.06,66.32.44,94.35,0,6.26,0,22.06,0,32.11.12,9,.22,16.67.32,24.7-2.19-.18-5.38-.34-10.76-.37C319.13,425.48,309.38,424.76,276.64,425.27Zm74.84,1.49c-.55-.05-.45-.11,0-.17Zm-.7-.8.38-13.29c.09,5.31.19,9.86.3,13.35Zm1.59.86c0-.1,0-.22,0-.32,1-.09,2-.19,1.13-.27l-1.11-.12c0-.71.05-1.42.08-2.25.13-4.1.36.55.54-.33.48-2.33,1-10.38,1.12-48.11.06-19.67,1.14-42.69,1.66-35.77.75,10.05,1.46-19,1.42-57.4,0-21.31,0-42.8,0-64,0-4.61.19-9.51.31-12.46.43-10.69.86-51.56.76-74.62,0-4.5-.11-10.25-.13-12.49-.48-15.07-.49-15.35-.08-36.53h0c.47,11.56.94,23.16,1.33,32.89a13.21,13.21,0,0,0,.58,4.2V82.14h.39c0,.34,0,.72,0,1.05l.15,9.51c.14,4.47.38,5.36.73,3.6-.14,16.2-.25,28.74-.36,41.64,0,8.67-.1,17.74-.15,26.84-.27,42-.52,79.44-.76,116.37,0,12.45-.09,29.25-.13,44.06-.06,23.07-.13,46.44-.19,69.17-.06,14.44-.05,25.3,0,32.75C356.87,427,354.25,426.92,352.37,426.82ZM363.14,355V355l22.13-.19.14.77C381.51,355.35,376.09,355.16,363.14,355Zm35.56,1.13c-.11-.49-.23-1-.31-1.48h.49c.09.5.16,1,.26,1.49Zm.08-31.49c.14-.83.26-1.62.46-2.39,0,.1.07.15,0,.26a97.73,97.73,0,0,0-1.5,23.78c.2,2.73.6,5.52,1.09,8.36h-.49A86.51,86.51,0,0,1,398.79,324.67Zm10-27.4-.07.21,3.81-6c-2.36,4.12-3.79,6.44-4.53,7.91-1.8,3.59-3.67,6.61-5,10.13,1-4.27,5.21-12.91,10.91-20.26C411.74,292.05,410.46,294.78,408.81,297.27Zm27.68-45a98.58,98.58,0,0,0-48.72,62.39,82.74,82.74,0,0,0-1.87,8.16,91,91,0,0,0-1.68,22.84c.12,1.94.3,3.86.54,5.72l.4,2.75,0,.27c-7.11-.17-11.5-.37-6.78-.66,3.94-.25-6-.54-15.27-.84,0-25.93.09-51.62.13-77.28l-.1,2.67c-.06-6.23-.12-12.39-.19-18.68q0-63.57,0-127.19c0-5.6,0-11.45,0-16.79-.09-21.85-.08-28.07.27-25.66.23,1.63.39-.59.5-4.89,0-.87,0-1.9,0-2.91h3.28v.58l1.11,13.9,1,15.85c0-9.45,0-19.67.07-30.33q10.26,0,20.56-.1a54.58,54.58,0,0,0-.49,6c-.23,6.79.5,16.75,1.64,18.34a31.35,31.35,0,0,1,1.19,4.43c.58,2.17,1.46,4.62,2.05,6.33.4,1.1.72,1.67.7,1.11,0-1.2-.33-3.27-.43-4.24a94.8,94.8,0,0,1-1.45-32l2.64,0c-.17,1.24-.36,2.48-.47,3.74a79.08,79.08,0,0,0-.16,12.34,92.24,92.24,0,0,0,10.47,38.15c1.22,2.12,2.88,4.85,4.39,7.26,6.6,9.67,14.82,17.45,24.71,24.37,1.32.84,4.62,2.66,5.44,3a9.83,9.83,0,0,0,3,.85l7.44,3.42c-.64-.33-1.14-.67-2.25-1.33a83.26,83.26,0,0,0,16.83,5.86A81.3,81.3,0,0,0,482,181.6l1,.43a73.4,73.4,0,0,0,13.36-.66c-1.64.13-2.59.18-3,.2.15-.34,1.58-.78-.06-.82-1.3,0-6.28.25-9.82,0-3.8-.21-5.43-.29-6.5-.63l-8.77-1.79c-7.39-2.19-4.76-2.2-5.11-2.79-.11-.22.33-.3.59-.5a56.72,56.72,0,0,0,6.13,1.14c-3.94-.77-6.55-1.81-9.92-2.71l.48.47c-1.52-.44-3.76-1.3-4.35-1.54A48.84,48.84,0,0,1,449.4,169a45.25,45.25,0,0,1-5.55-3.5c-2-1.54-.58-1,2.21.3,2.91,1.08,7.12,3.13,11.05,4.32a87.87,87.87,0,0,0,30.8,4.91,70.27,70.27,0,0,0,10.67-1.15c0,4.28,0,8.58,0,12.83,0,1.64,0,3.3,0,5a90.5,90.5,0,0,1-19.32,1.56l1.39.25a78.28,78.28,0,0,0,12.59-.11c1.78-.15,3.57-.37,5.35-.61,0,15.71,0,31.68.07,47.42l-.54-.08-2.88-.34c-1.92-.19-3.85-.34-5.78-.4a104.94,104.94,0,0,0-23.08,2A112.26,112.26,0,0,0,436.49,252.25Zm32.32-166.9a51.23,51.23,0,0,1,22.78,21.47l1.86,3.63,1.06,2.63,1.07,2.39c.73,1-1.11-5.75-1.54-7a50.76,50.76,0,0,1,4.45,17.24l.19,4.48,0,5.31q0,5.29,0,10.5c0,5.75,0,11.4,0,17a18.23,18.23,0,0,1-2.85,1l.13.14s.05.12,0,.09l-.3-.07-3.18.37c-1.38.13-2.75.24-4.13.3a92.64,92.64,0,0,1-16.65-1A71.39,71.39,0,0,1,450,156.14a72.51,72.51,0,0,1-20.66-17.44,73.64,73.64,0,0,1-14.22-27.82,32.65,32.65,0,0,1-1.23-5.88A102.87,102.87,0,0,1,413,88.59l.27-4.08.2-2c.09-.77,0-.29,0-.46a1.84,1.84,0,0,1-.15-.25l5.83,0,.34.05v-.05l22.2-.16c7.2-.09,11.6,0,17,1.18a45.54,45.54,0,0,1,14.86,6.12A36.9,36.9,0,0,0,468.81,85.35Zm29.79,82.14-.63.18-1.12.26c-.4.08-.51.12-2,.33a67.12,67.12,0,0,1-14.22.52l-1.41-.23a33.35,33.35,0,0,1,3.85-.19,68.24,68.24,0,0,0,12.95-.61,21,21,0,0,0,2.44-.39l.18-.06C498.6,167.37,498.6,167.43,498.6,167.49Zm-18.46,6.84c2.31,0,4.63.27,6.93.17a44.46,44.46,0,0,0,10.4-1.24c.33-.1.73-.21,1.12-.31v.9c-.79.13-1.59.24-2.8.39q-2.6.31-5.22.45a69.13,69.13,0,0,1-10.45-.2Zm-66.29-34c-2.45-4-4.06-6.15-4.71-7.63a76.14,76.14,0,0,1-4.09-10.28,128,128,0,0,0,10.46,19.9c-2.15-2.7-3.38-5.39-5-7.83l-.15-.16ZM401.09,107.6c.13.81.17,1.6.32,2.35-.07-.08-.14-.11-.16-.21a95.72,95.72,0,0,1-1.63-23.25c.11-1.57.37-3,.56-4.56h.33A84.33,84.33,0,0,0,401.09,107.6Zm76.49,136c1.59-.22,3-.52,4.85-.63a78.93,78.93,0,0,1,16.23.86c0,.11,0,.22,0,.33l-1.23-.16a87.3,87.3,0,0,0-18-.34Zm19.3,6.41q-2.86-.4-5.75-.62a77.54,77.54,0,0,0-11.56,0v-.15c2.57-.11,5.13-.44,7.7-.33,4.78.14,8,.44,11.39.71v0h-.06v.63Zm8.8,70.84c.09-7.5.17-16.22.21-25.86l-.38,0c.06-3.1.12-6.59.17-10.43-.08-5.87-.27-11.74-.4-17.62.4-11.81.68-38.66.66-70.6,0-13.82,0-27.71,0-41.58V134c.07-3.55-.1-6.78-.27-10a61.6,61.6,0,0,0-1.77-9.48,62.39,62.39,0,0,0-5.52-14A57,57,0,0,0,468.83,74.7a41.3,41.3,0,0,0-6.4-2.07,46.38,46.38,0,0,0-6.69-1.34,99.68,99.68,0,0,0-13.89-.63l-25.8,0-16.2.13c-19.92.48-19.59.49-48.66.06l43.94-1.36a21.83,21.83,0,0,0,5.46-.58H344.15L325.41,69,92.05,68.79l-9.47-.06a5.87,5.87,0,0,1,.94-.11l186.24-.15,57.29.07c37.82,0,48.64-.17,43.76-.93l54,.36,17.2.1c5.84,0,11.7,0,17.46,1.17A61.53,61.53,0,0,1,508.76,122c.67,6.09.42,12.3.41,18.45s-.08,12.25-.12,18.32c-.09,12.14-.18,24.16-.27,36.14,0,16.15-.09,37.95-.13,57.17,0,15-.05,30-.08,45A67.55,67.55,0,0,1,505.68,320.87ZM55.94,63.47c-2.13.57.25-.45,4.85-1.67a65,65,0,0,1,12.66-1.91c4.79-.35,8.68-.23,12.85-.37,8.07-.16,14.88-.32,16.39-.5,6.24-.72,41.7-.49,65.88-.62,20.53-.1,32.26.05,40.35.38,8.45.34,21.63.67,36.87.95l34.58.11c39.51-.51,79.24-.11,111.41-.13l-20.57,1-18,1.11-71.18,0c-33,.15-54.92-.12-81.73-.26-40.26-.13-81.55-.5-127.44-.35C68.9,60.92,60.55,62.38,55.94,63.47ZM456.63,186.41c3.06,1.56,6,3.06,8.33,4.41.4.23-2.09-.2-4.24-.64-10.77-2.09-22.54-7.51-32.34-14.26-7.35-5.47-8.13-6.36-4.41-4,1.12.69.38-.11.49-.22-2.59-1.76-5.61-4.74-7-5.86a84.89,84.89,0,0,1-6.69-5.88,95.66,95.66,0,0,1-14.71-22.54c-.57-1.27-1.19-2.69-1.37-3.23-1.63-5.62,4.29,7.33,13.37,18.73,9.75,12.78,23.18,22.66,37.69,29.1C451.94,184.48,455.34,185.66,456.63,186.41Zm-15.94,96.06c.69-.66-.05-.35-.14-.48a38.77,38.77,0,0,0-5.11,4.35,33.09,33.09,0,0,0-4.13,5.05,69.26,69.26,0,0,0-11.69,15.81c-.47.91-1,1.9-1.27,2.25-2.41,3.72.57-6.74,7.61-15.61,7.48-9.85,17.76-17.51,28.83-22.7,4.74-2,7.4-2.8,8.55-2.84,2.72.07,5.17.2,7.14.43.33,0-1.4.7-2.89,1.19-7.48,2.3-16,5.62-23.09,10.46C439.23,284.33,438.38,284.66,440.69,282.47Zm56.88-14.81-.1.34a5.71,5.71,0,0,0,.45-.53l.07.79a14.38,14.38,0,0,1,.07,2c0,3.06.07,6,.1,9.06,0,2-.08,4.91-.17,6.47-.61,9.73-1.65,5.43-2.1-6.74l-.25-9.85c0-.77-.07-.23-.08-.41h0l-.44-.06c-1.39-.19-2.78-.34-4.16-.43a57.49,57.49,0,0,0-9,0l-1-.13a63.23,63.23,0,0,1,14.23-.48c.84.08.45,0,.65,0l.22-.08a4,4,0,0,1,.55-.12C497,267.29,497.55,267.24,497.57,267.66ZM114.26,152.88c9.08-11.39,15-24.35,13.37-18.73-.18.54-.79,2-1.37,3.23a95.66,95.66,0,0,1-14.71,22.54,85,85,0,0,1-6.69,5.88c-1.38,1.12-4.39,4.09-7,5.86.11.12-.63.91.49.22,3.73-2.32,2.94-1.43-4.41,4-9.79,6.75-21.57,12.17-32.34,14.26-2.15.45-4.64.87-4.24.64,2.37-1.35,5.27-2.85,8.33-4.41,1.29-.75,4.69-1.92,10.87-4.43C91.07,175.53,104.5,165.66,114.26,152.88Zm-17.88,141c7,8.88,10,19.33,7.61,15.61-.25-.35-.8-1.34-1.27-2.25A69.25,69.25,0,0,0,91,291.38a33.09,33.09,0,0,0-4.13-5.05A38.8,38.8,0,0,0,81.78,282c-.09.13-.83-.18-.14.48,2.31,2.19,1.46,1.86-3.79-2.09-7.1-4.84-15.61-8.16-23.09-10.46-1.5-.49-3.22-1.15-2.89-1.19,2-.24,4.42-.36,7.14-.43,1.14,0,3.81.85,8.55,2.84C78.62,276.33,88.89,284,96.38,293.83Zm198.89-69-.44,5.66a20.89,20.89,0,0,1-.17,2.27l-.14,1.75a12.4,12.4,0,0,1-.58,2.87,20.77,20.77,0,0,1-8.42,10.83,30.88,30.88,0,0,1-11.67,4.45l-3.32.5v.09c.19,3.45.28,6.8-.65,9.78.34,1-.5,1.94-1.09,2.55L267.62,267l-1.23,2.84a1.12,1.12,0,0,1-1.14.6,1.07,1.07,0,0,1-.63-.34l-1.85,2a1.08,1.08,0,0,1-1.39.15,1,1,0,0,1-.32-1.31l1.08-1.89a1,1,0,0,1-.51-.86v-1.9a1.82,1.82,0,0,1-.95,0l-.21.3a1.06,1.06,0,0,1-1.24.37,1,1,0,0,1-.67-1.06l.2-1.54a4.58,4.58,0,0,1-.13-.72,17.33,17.33,0,0,1-.1-2.23c0-.4,0-.72,0-1s0-.45,0-.66l.12-.83a.88.88,0,0,1,.05-.2l0-.15a9.91,9.91,0,0,1-.09-2.1v-.63a3.5,3.5,0,0,1,.15-1.16v0a.91.91,0,0,1,0-.38l.2-2s0-.08,0-.12c-1.12-.15-2.12-.33-3.06-.53a33.39,33.39,0,0,1-16.38-9.24,37.61,37.61,0,0,1-4-4.68,32.9,32.9,0,0,1-2.66-4.62l-.17-.35a1,1,0,0,1,0-.91,1.91,1.91,0,0,1,1.07-2.26,2.42,2.42,0,0,1,1.08-.27,1.83,1.83,0,0,1,.22-.9l.29-.55a1.07,1.07,0,0,1,.92-.56h.36a1.08,1.08,0,0,1,1.68.07l4.21,5.76a26.1,26.1,0,0,0,15.27,10.34l.4.09a1.24,1.24,0,0,1,.38.16c.52.13,1.06.22,1.64.32a35.66,35.66,0,0,0,9.86.11,22.73,22.73,0,0,0,9-2.78c.39-.23.76-.47,1.1-.72l-.65-.72a1,1,0,0,1,.08-1.39l.29-.26a10,10,0,0,0,2.62-3.67,7.71,7.71,0,0,0,.37-1.12l.15-.62c0-.33.09-.55.13-.74a15.05,15.05,0,0,0,.25-2.89,11.48,11.48,0,0,0-.49-2.66,6.94,6.94,0,0,0-1.58-2.42l-.47-.43a12.49,12.49,0,0,0-2.4-1.84,19.33,19.33,0,0,0-5-1.91,12.24,12.24,0,0,1-1.66-.53h0c-.08,0-2.42-.46-4.28-.7-.56-.09-2-.32-2.39-1.45-.85-.08-1.68-.19-2.51-.29a1.9,1.9,0,0,1,.08.78c-.06.41-.4,1.77-2.42,1.77h-.33l-1.89-.25a43,43,0,0,1-13.48-4.31,24.08,24.08,0,0,1-4.39-3.53A21.23,21.23,0,0,1,238,208.7a2.54,2.54,0,0,1-.94-1v0l-.13-.25a13.45,13.45,0,0,1-1.58-5.4,19.1,19.1,0,0,1,2.7-11,25.51,25.51,0,0,1,6.4-7.5c1.66-1.43,2.85-1.93,3.88-1.62l.55.17a1,1,0,0,1,.71.76l.24,1.14c0,.13-.1.22-.12.34a24.64,24.64,0,0,1,4.15-2.14,1,1,0,0,1-.64-.58l-.77-1.83a1,1,0,0,1,.53-1.29l1-.46a30,30,0,0,1,4.52-1.21,7.49,7.49,0,0,1,.1-1.33c0-.08,0-.18.08-.3l-.14-.32a1,1,0,0,1-.07-.37v-.27c0-.17,0-.4,0-.61s0-.64,0-.95a18.92,18.92,0,0,1,.1-2.33c0-.15,0-.32.08-.49l-.28-1.81a1,1,0,0,1,.65-1.08,1.06,1.06,0,0,1,1.25.35l.28.37a1.2,1.2,0,0,1,.51,0,2,2,0,0,1,.51.07v-1.86a1,1,0,0,1,.5-.85l-1-1.7a1,1,0,0,1,.32-1.31,1.08,1.08,0,0,1,1.39.14l1.71,1.79a1,1,0,0,1,.65-.37,1.07,1.07,0,0,1,1.14.59l1.38,3.08.69.69a1,1,0,0,1,.33.43c.6.64,1.38,1.48,1.1,2.48a19.37,19.37,0,0,1,.78,5.63,25.25,25.25,0,0,1,3.26.61,27.42,27.42,0,0,1,11.68,6.23,21.58,21.58,0,0,1,4.79,5.87,2,2,0,0,1-.73,2.86c-1.57.93-2.58-.22-3.46-1.22l-1.32-1.47c-.74-.76-1.72-1.79-2.48-2.4a23.79,23.79,0,0,0-8.88-5l-.39-.12a1.08,1.08,0,0,1-.42-.26c-.71-.2-1.45-.38-2.2-.52,0,.63-.06,1.23-.08,1.82.53.09,1.05.18,1.57.3,3.76.79,8.52,3.53,10.39,6a2.75,2.75,0,0,1,.56,1,24.61,24.61,0,0,1,4.72,7.57l.14.35a1,1,0,0,1-.53,1.27l-1.83.83a1.09,1.09,0,0,1-1.37-.42l-.19-.33c-.23-.39-.47-.77-.72-1.14a1.06,1.06,0,0,1-.83-.52l-.2-.34c-.27-.45-.51-.85-.73-1.2a.89.89,0,0,1-.88-.39l-.24-.3c-.26-.33-.51-.6-.7-.81a5.18,5.18,0,0,1-1.35-.91l-.49-.41h0l-.46-.17a7.55,7.55,0,0,1-1.56-.87,19.14,19.14,0,0,0-5.3-2.44,5.25,5.25,0,0,0-1.12-.23,23.94,23.94,0,0,0-7.64.14,18.28,18.28,0,0,0-6.73,2.59,13.59,13.59,0,0,0-5.59,7c-.57,2-.2,3.15,3.53,4.92s8.89,2.76,16.24,3.41l3.94.43a29,29,0,0,1,12.3,4,19.38,19.38,0,0,1,8.27,10,13.81,13.81,0,0,1,.52,1.58,1.09,1.09,0,0,1,.36,0A1,1,0,0,1,295.27,224.86Z"/></svg>